<?xml version="1.0"?>
<svg xmlns:rdf="http://www.w3.org/1999/02/22-rdf-syntax-ns#" xmlns="http://www.w3.org/2000/svg" xmlns:cc="http://web.resource.org/cc/" xmlns:xlink="http://www.w3.org/1999/xlink" xmlns:dc="http://purl.org/dc/elements/1.1/" id="svg2" viewBox="0 0 335.25 538.43" version="1.0">
  <defs id="defs3">
    <linearGradient id="linearGradient4554" y2="537.18" gradientUnits="userSpaceOnUse" x2="412.41" gradientTransform="translate(140.02 293.21)" y1="673.55" x1="-5.3221">
      <stop id="stop4546" stop-color="#fff" offset="0"/>
      <stop id="stop4548" stop-color="#fff" stop-opacity="0" offset="1"/>
    </linearGradient>
  </defs>
  <g id="layer1" transform="translate(-140.02 -293.21)">
    <g id="g2557" fill-rule="evenodd">
      <path id="path2762" stroke="#000" stroke-width="1.2009px" d="m142.56 293.81c-17.01 76.95 82.9 347.59 93.78 385.46 33.92 130.82 223.19 83.47 185.91 5.91-66.1-133.65-261.26-276-279.69-391.37z"/>
      <path id="path1873" d="m146.05 317.07c-11.55 74.45 87.37 328.76 98.5 364.5 35.25 123.6 198.56 69.37 162.66-3.1-63.49-124.81-240.1-251.85-261.16-361.4z" stroke="#000" stroke-width="1.0994px" fill="#eb9500"/>
      <g id="g3653" stroke="#000" transform="translate(-163.64 174.76)">
        <path id="path3651" d="m511.15 581.74l63.56-41.39 63.57 80.02-45.58-38.63 12 42.77-9.6 4.14-20.39-30.35 14.4 38.63-19.19-15.18 1.19 27.6-11.99-1.38-33.58-44.15 6 42.77-12-15.18-15.59 24.84-4.8-8.28 12-66.23z" stroke-width="1.2734px" fill="#22280b"/>
        <path id="path3649" d="m517.2 578.6l53.54-30.3 53.53 58.58-38.38-28.28 10.1 31.32-8.08 3.03-17.17-22.23 12.12 28.29-16.16-11.11 1.01 20.2-10.11-1.01-28.28-32.33 5.05 31.32-10.1-11.11-13.13 18.18-4.04-6.06 10.1-48.49z" stroke-width="1px" fill="#8dd35f"/>
      </g>
      <path id="path4556" stroke="#000" stroke-width="1px" d="m415.59 680.45c-14.36 30.43-38.74 47.97-65.64 56.77 31.64-17.88 49.4-40.17 57.86-61.88l7.78 5.11z"/>
      <path id="path5443" stroke="#000" stroke-width="1px" d="m401.65 660.58c-11.07 31.76-22.36 36.62-48.18 52.25 25.54-24.14 33.78-34.04 39.91-56.52l8.27 4.27z"/>
      <path id="path5445" stroke="#000" stroke-width="1.022px" d="m394.81 643.21c-12.47 29.48-25.17 33.99-54.23 48.49 28.75-22.41 38.02-31.59 44.91-52.45l9.32 3.96z"/>
      <path id="path5447" stroke="#000" stroke-width="1px" d="m380.5 624.24c-21.78 32.89-33.15 36.08-60.94 48.35 30.9-21.71 41.7-31.04 55.67-54.65l5.27 6.3z"/>
      <path id="path5449" stroke="#000" stroke-width="1px" d="m360.84 599.21c-14.51 36.68-24.98 42.15-49.64 59.9 25.76-27.63 34.39-38.99 43.19-64.97l6.45 5.07z"/>
      <path id="path5451" stroke="#000" stroke-width=".85095px" d="m349.52 588.66c-19.61 28.7-28.09 29.87-49.38 37.14 24.69-16.06 33.53-23.39 46.43-44.28l2.95 7.14z"/>
      <path id="path5453" stroke="#000" stroke-width=".78854px" d="m338.07 565.92c-12.21 27.11-21.02 31.15-41.77 44.26 21.68-20.42 28.94-28.8 36.35-48.01l5.42 3.75z"/>
      <path id="path5455" stroke="#000" stroke-width=".90203px" d="m322.86 550.31c-16.01 27.04-27.57 31.07-54.79 44.16 28.43-20.37 37.97-28.74 47.68-47.9l7.11 3.74z"/>
      <path id="path5457" stroke="#000" stroke-width=".93758px" d="m314.48 541.93c-24.37 25.64-35.62 26.48-63.58 32.55 31.95-13.99 43.29-20.43 59.2-39.12l4.38 6.57z"/>
      <path id="path5459" stroke="#000" stroke-width=".93758px" d="m292.41 525.21c-24.37 25.63-35.62 26.47-63.59 32.55 31.96-13.99 43.3-20.44 59.21-39.13l4.38 6.58z"/>
      <path id="path5461" stroke="#000" stroke-width=".68839px" d="m281.43 513.32c-22.15 15.21-32.37 15.7-57.78 19.31 29.03-8.3 39.34-12.13 53.79-23.22l3.99 3.91z"/>
      <path id="path5463" stroke="#000" stroke-width=".69669px" d="m267.78 498.09c-19.44 14.03-42.06 18.13-63.81 16.55 27.87-2.49 47.24-10.98 59.84-21.43l3.97 4.88z"/>
      <path id="path5465" stroke="#000" stroke-width=".75694px" d="m255.13 473.11c-20.57 19.8-30.07 20.45-53.67 25.14 26.97-10.8 36.54-15.78 49.97-30.22l3.7 5.08z"/>
      <path id="path5467" stroke="#000" stroke-width=".78426px" d="m238.35 457.26c-9.73 22.23-19.65 25.63-42.34 36.57 22.45-16.9 29.69-23.82 35.07-39.56l7.27 2.99z"/>
      <path id="path5469" stroke="#000" stroke-width=".6893px" d="m221.23 435.22c-6.97 23.99-14.07 27.66-30.32 39.46 16.07-18.23 21.26-25.7 25.11-42.68l5.21 3.22z"/>
      <path id="path5471" stroke="#000" stroke-width=".67562px" d="m207.09 419.84c-7.2 22.29-14.54 25.7-31.33 36.67 16.61-16.95 21.96-23.89 25.95-39.67l5.38 3z"/>
      <path id="path5473" stroke="#000" stroke-width=".54563px" d="m195.76 399.79c-7.55 20.97-13.01 24.1-25.85 34.24 13.41-15.79 17.91-22.28 22.49-37.14l3.36 2.9z"/>
      <path id="path5475" stroke="#000" stroke-width=".49801px" d="m179.5 382.45c-8.28 21.29-12.1 21.99-21.61 27.04 10.86-11.62 14.71-16.98 20.12-32.5l1.49 5.46z"/>
      <path id="path5477" stroke="#000" stroke-width=".26423px" d="m170.52 372.92c-6.04 8.2-8.83 8.47-15.77 10.42 7.92-4.48 10.74-6.54 14.68-12.53l1.09 2.11z"/>
      <path id="path5479" stroke="#000" stroke-width=".25579px" d="m161.94 356.25c-5.66 8.21-8.28 8.48-14.77 10.43 7.42-4.49 10.06-6.55 13.75-12.54l1.02 2.11z"/>
      <path id="path3657" opacity=".84507" d="m146.13 318.19c-2.46 74.45 115.65 321.69 126.78 357.43 48.39 88.25 165.23 59.27 134.38 3.97-63.49-124.8-240.1-251.85-261.16-361.4z" fill="url(#linearGradient4554)"/>
    </g>
  </g>
  <metadata>
    <rdf:RDF>
      <cc:Work>
        <dc:format>image/svg+xml</dc:format>
        <dc:type rdf:resource="http://purl.org/dc/dcmitype/StillImage"/>
        <cc:license rdf:resource="http://creativecommons.org/licenses/publicdomain/"/>
        <dc:publisher>
          <cc:Agent rdf:about="http://openclipart.org/">
            <dc:title>Openclipart</dc:title>
          </cc:Agent>
        </dc:publisher>
      </cc:Work>
      <cc:License rdf:about="http://creativecommons.org/licenses/publicdomain/">
        <cc:permits rdf:resource="http://creativecommons.org/ns#Reproduction"/>
        <cc:permits rdf:resource="http://creativecommons.org/ns#Distribution"/>
        <cc:permits rdf:resource="http://creativecommons.org/ns#DerivativeWorks"/>
      </cc:License>
    </rdf:RDF>
  </metadata>
</svg>
