<?xml version="1.0"?>
<svg xmlns:rdf="http://www.w3.org/1999/02/22-rdf-syntax-ns#" xmlns="http://www.w3.org/2000/svg" xmlns:cc="http://web.resource.org/cc/" xmlns:xlink="http://www.w3.org/1999/xlink" xmlns:dc="http://purl.org/dc/elements/1.1/" id="svg2" viewBox="0 0 778.22 569.67" version="1.0">
  <defs id="defs2069">
    <radialGradient id="radialGradient4949" gradientUnits="userSpaceOnUse" cy="279.51" cx="-498.57" gradientTransform="matrix(1 0 0 .50427 80.577 164.49)" r="167.14">
      <stop id="stop3854" stop-color="#fff" offset="0"/>
      <stop id="stop3856" stop-color="#fff" stop-opacity="0" offset="1"/>
    </radialGradient>
  </defs>
  <g id="layer1" transform="translate(-165.81 -86.83)">
    <g id="g4907" transform="matrix(1.355 0 0 1.2889 27.643 -521.45)">
      <path id="path3888" d="m-331.43 279.51a167.14 84.286 0 1 1 -334.28 0 167.14 84.286 0 1 1 334.28 0z" fill="#333" transform="matrix(1.5187 0 0 2.5982 1144.3 -31.282)" fill-opacity=".067358"/>
      <path id="path3890" d="m-734.29 269.51a25.714 17.143 0 1 1 -51.42 0 25.714 17.143 0 1 1 51.42 0z" fill="#333" transform="matrix(1.5187 0 0 2.5982 1791.5 -.09249)" fill-opacity=".067358"/>
      <path id="path3892" d="m-734.29 269.51a25.714 17.143 0 1 1 -51.42 0 25.714 17.143 0 1 1 51.42 0z" fill="#333" transform="matrix(1.5187 0 0 2.5982 1299.3 -.09249)" fill-opacity=".067358"/>
      <path id="path3894" d="m384.67 691.27l3.04 10.4" fill-rule="evenodd" fill-opacity=".067358" stroke="#000" stroke-width="1.9864px" fill="#333"/>
      <path id="path3896" d="m314.78 717.26h6.08" fill-rule="evenodd" fill-opacity=".067358" stroke="#000" stroke-width="1.9864px" fill="#333"/>
      <path id="path3898" d="m336.05 597.7l-3.04-5.19" fill-rule="evenodd" fill-opacity=".067358" stroke="#000" stroke-width="1.9864px" fill="#333"/>
      <path id="path3900" d="m491.02 795.24v-15.6" fill-rule="evenodd" fill-opacity=".067358" stroke="#000" stroke-width="1.9864px" fill="#333"/>
      <path id="path3902" d="m560.9 717.26z" fill-rule="evenodd" fill-opacity=".067358" stroke="#000" stroke-width="1.9864px" fill="#333"/>
      <path id="path3904" d="m427.21 784.84l3.04 10.4" fill-rule="evenodd" fill-opacity=".067358" stroke="#000" stroke-width="1.9864px" fill="#333"/>
      <path id="path3906" d="m570.02 660.08l3.03 10.4" fill-rule="evenodd" fill-opacity=".067358" stroke="#000" stroke-width="1.9864px" fill="#333"/>
      <path id="path3908" d="m363.4 816.03l3.04 10.4" fill-rule="evenodd" fill-opacity=".067358" stroke="#000" stroke-width="1.9864px" fill="#333"/>
      <path id="path3910" d="m445.44 665.28l3.04 10.4" fill-rule="evenodd" fill-opacity=".067358" stroke="#000" stroke-width="1.9864px" fill="#333"/>
      <path id="path3912" d="m196.28 680.88l3.04 10.39" fill-rule="evenodd" fill-opacity=".067358" stroke="#000" stroke-width="1.9864px" fill="#333"/>
      <path id="path3914" d="m272.24 576.91l3.04 10.4" fill-rule="evenodd" fill-opacity=".067358" stroke="#000" stroke-width="1.9864px" fill="#333"/>
      <path id="path3916" d="m475.82 597.7l3.04 10.4" fill-rule="evenodd" fill-opacity=".067358" stroke="#000" stroke-width="1.9864px" fill="#333"/>
      <path id="path3918" d="m348.21 758.85l3.04 10.4" fill-rule="evenodd" fill-opacity=".067358" stroke="#000" stroke-width="1.9864px" fill="#333"/>
      <path id="path3920" d="m384.67 613.3l3.04 10.4" fill-rule="evenodd" fill-opacity=".067358" stroke="#000" stroke-width="1.9864px" fill="#333"/>
      <path id="path3922" d="m255.53 717.26l-3.04 10.4" fill-rule="evenodd" fill-opacity=".067358" stroke="#000" stroke-width="1.9867px" fill="#333"/>
      <path id="path3924" d="m215.43 676.36l5.71 5.72" fill-rule="evenodd" fill-opacity=".067358" stroke="#000" stroke-width="1px" fill="#333"/>
      <path id="path3930" opacity=".75234" d="m-331.43 279.51a167.14 84.286 0 1 1 -334.28 0 167.14 84.286 0 1 1 334.28 0z" fill-opacity=".067358" transform="matrix(1.5187 0 0 2.5982 1144.3 -31.282)" fill="#333"/>
      <path id="path1896" d="m-331.43 279.51a167.14 84.286 0 1 1 -334.28 0 167.14 84.286 0 1 1 334.28 0z" fill="#ff0" transform="matrix(1.5187 0 0 2.5982 1140.3 -35.282)"/>
      <path id="path1898" d="m-734.29 269.51a25.714 17.143 0 1 1 -51.42 0 25.714 17.143 0 1 1 51.42 0z" fill="#ff0" transform="matrix(1.5187 0 0 2.5982 1787.5 -4.0925)"/>
      <path id="path1900" d="m-734.29 269.51a25.714 17.143 0 1 1 -51.42 0 25.714 17.143 0 1 1 51.42 0z" fill="#ff0" transform="matrix(1.5187 0 0 2.5982 1295.3 -4.0925)"/>
      <path id="path1907" d="m380.67 687.27l3.04 10.4" stroke="#000" stroke-width="1.9864px" fill="none"/>
      <path id="path1909" d="m310.78 713.26h6.08" stroke="#000" stroke-width="1.9864px" fill="none"/>
      <path id="path1911" d="m332.05 593.7l-3.04-5.19" stroke="#000" stroke-width="1.9864px" fill="none"/>
      <path id="path1913" d="m487.02 791.24v-15.6" stroke="#000" stroke-width="1.9864px" fill="none"/>
      <path id="path1915" d="m556.9 713.26z" stroke="#000" stroke-width="1.9864px" fill="none"/>
      <path id="path1919" d="m423.21 780.84l3.04 10.4" stroke="#000" stroke-width="1.9864px" fill="none"/>
      <path id="path1921" d="m566.02 656.08l3.03 10.4" stroke="#000" stroke-width="1.9864px" fill="none"/>
      <path id="path1923" d="m359.4 812.03l3.04 10.4" stroke="#000" stroke-width="1.9864px" fill="none"/>
      <path id="path1925" d="m441.44 661.28l3.04 10.4" stroke="#000" stroke-width="1.9864px" fill="none"/>
      <path id="path1927" d="m192.28 676.88l3.04 10.39" stroke="#000" stroke-width="1.9864px" fill="none"/>
      <path id="path1929" d="m268.24 572.91l3.04 10.4" stroke="#000" stroke-width="1.9864px" fill="none"/>
      <path id="path1931" d="m471.82 593.7l3.04 10.4" stroke="#000" stroke-width="1.9864px" fill="none"/>
      <path id="path1933" d="m344.21 754.85l3.04 10.4" stroke="#000" stroke-width="1.9864px" fill="none"/>
      <path id="path1935" d="m380.67 609.3l3.04 10.4" stroke="#000" stroke-width="1.9864px" fill="none"/>
      <path id="path1937" d="m251.53 713.26l-3.04 10.4" stroke="#000" stroke-width="1.9867px" fill="none"/>
      <path id="path2095" d="m211.43 672.36l5.71 5.72" stroke="#000" stroke-width="1px" fill="none"/>
      <path id="path2965" opacity=".75234" d="m-331.43 279.51a167.14 84.286 0 1 1 -334.28 0 167.14 84.286 0 1 1 334.28 0z" fill="url(#radialGradient4949)" transform="matrix(1.5187 0 0 2.5982 1140.3 -35.282)"/>
    </g>
  </g>
  <metadata>
    <rdf:RDF>
      <cc:Work>
        <dc:format>image/svg+xml</dc:format>
        <dc:type rdf:resource="http://purl.org/dc/dcmitype/StillImage"/>
        <cc:license rdf:resource="http://creativecommons.org/licenses/publicdomain/"/>
        <dc:publisher>
          <cc:Agent rdf:about="http://openclipart.org/">
            <dc:title>Openclipart</dc:title>
          </cc:Agent>
        </dc:publisher>
      </cc:Work>
      <cc:License rdf:about="http://creativecommons.org/licenses/publicdomain/">
        <cc:permits rdf:resource="http://creativecommons.org/ns#Reproduction"/>
        <cc:permits rdf:resource="http://creativecommons.org/ns#Distribution"/>
        <cc:permits rdf:resource="http://creativecommons.org/ns#DerivativeWorks"/>
      </cc:License>
    </rdf:RDF>
  </metadata>
</svg>
