<?xml version="1.0"?>
<svg xmlns:rdf="http://www.w3.org/1999/02/22-rdf-syntax-ns#" xmlns="http://www.w3.org/2000/svg" xmlns:cc="http://web.resource.org/cc/" xmlns:dc="http://purl.org/dc/elements/1.1/" id="svg2" viewBox="0 0 470.07 450.08" version="1.0">
  <g id="layer2" transform="translate(-10.774 -5.3784)">
    <path id="path2760" fill-rule="evenodd" fill="#e70000" d="m230.51 122.98c-32.75-23.156-58.81-27.362-104.56-27.208-44.968 0.152-89.813 18.168-104.51 56.458-14.702 38.28-15.254 77.22 8.505 135.63 23.759 58.4 65.162 108.45 116.44 141.35 51.91 33.32 91.52 11.07 110.33 11.07 78.1 17.52 119.43 24.79 158.59-5.54 38.27-29.64 43.22-42.96 54.5-80.09 11.46-37.73 10.38-113.26-0.73-165.72-11.11-52.45-39.95-75.81-92.39-92.478-52.45-16.665-106.54-4.052-146.17 26.528z"/>
    <path id="path2764" stroke-linejoin="round" d="m245.17 130.45c-30.01-21.85-55.44-25.68-100.87-25.2-44.666 0.47-91.13 17.98-109.85 54.6-18.718 36.61-23.462 73.76-6.167 129.29s53.007 102.97 100.37 133.98c47.95 31.4 89.67 9.9 108.34 9.76 75.65 16.15 115.91 22.79 158.05-6.42 41.19-28.55 51.03-52.93 62.74-76.78 17.34-35.29 22.76-96.99 6.72-147.73-15.8-49.94-31.5-84.91-81.77-100.43-50.27-15.518-94.92-0.52-137.56 28.93z" stroke="#000" stroke-linecap="round" stroke-width="13.561" fill="none"/>
    <path id="path2770" stroke-width="1.0884px" stroke="#000" fill-rule="evenodd" d="m179.66 27.805c5.03-18.168 51.27-17.607 63.94-21.882 0-0.0004-4.78 95.867 7.63 143.8-19.18-1.07-20.99-4.17-20.99-4.17s-28.63-104.2-50.58-117.74z"/>
    <path id="path2776" fill-rule="evenodd" fill="#fff" d="m417.51 317.86c2.42-1.1-7.19 69.49-97.42 89.43 23.05-16.16 82.75-39.87 97.42-89.43z"/>
  </g>
  <metadata>
    <rdf:RDF>
      <cc:Work>
        <dc:format>image/svg+xml</dc:format>
        <dc:type rdf:resource="http://purl.org/dc/dcmitype/StillImage"/>
        <cc:license rdf:resource="http://creativecommons.org/licenses/publicdomain/"/>
        <dc:publisher>
          <cc:Agent rdf:about="http://openclipart.org/">
            <dc:title>Openclipart</dc:title>
          </cc:Agent>
        </dc:publisher>
      </cc:Work>
      <cc:License rdf:about="http://creativecommons.org/licenses/publicdomain/">
        <cc:permits rdf:resource="http://creativecommons.org/ns#Reproduction"/>
        <cc:permits rdf:resource="http://creativecommons.org/ns#Distribution"/>
        <cc:permits rdf:resource="http://creativecommons.org/ns#DerivativeWorks"/>
      </cc:License>
    </rdf:RDF>
  </metadata>
</svg>
