<?xml version="1.0"?>
<svg xmlns:rdf="http://www.w3.org/1999/02/22-rdf-syntax-ns#" xmlns="http://www.w3.org/2000/svg" xmlns:cc="http://web.resource.org/cc/" xmlns:dc="http://purl.org/dc/elements/1.1/" id="svg2" viewBox="0 0 606.66 488.4" version="1.0">
  <g id="layer1" transform="translate(-51.137 -332.91)">
    <g id="g2968" stroke="#000" stroke-width="2.588" transform="matrix(1.1039 0 0 .78117 -75.112 171.7)">
      <path id="path2013" d="m662.83 536.38c0 61.35-3.68 88.38-101.88 208.15-52.03 63.45-170.61 85.53-238.72 85.53-68.1 0-127.55-36.06-143.5-97.79-15.14-58.59-42.27-132.53-60.44-230.56-18.439-99.48 57.21-225.53 105.7-264.75s125.99-23.84 214.49-28.93c68-3.92 97.06 102.55 133.6 153.97 36.54 51.41 88.71 57.96 90.75 174.38z" fill="#bb7a50"/>
      <path id="path2912" d="m320.2 379.34a7.1381 6.1184 0 1 1 -14.28 0 7.1381 6.1184 0 1 1 14.28 0z" fill="#28170b" transform="matrix(.64526 0 0 .54447 36.614 162.35)"/>
      <path id="path2914" d="m320.2 379.34a7.1381 6.1184 0 1 1 -14.28 0 7.1381 6.1184 0 1 1 14.28 0z" fill="#28170b" transform="matrix(.54283 0 0 .59164 105.64 32.03)"/>
      <path id="path2916" d="m320.2 379.34a7.1381 6.1184 0 1 1 -14.28 0 7.1381 6.1184 0 1 1 14.28 0z" fill="#28170b" transform="matrix(.57270 0 0 .62648 169.46 73.114)"/>
      <path id="path2918" d="m320.2 379.34a7.1381 6.1184 0 1 1 -14.28 0 7.1381 6.1184 0 1 1 14.28 0z" fill="#28170b" transform="matrix(.51297 0 0 .55680 148.39 102.1)"/>
      <path id="path2920" d="m320.2 379.34a7.1381 6.1184 0 1 1 -14.28 0 7.1381 6.1184 0 1 1 14.28 0z" fill="#28170b" transform="matrix(.59671 0 0 .73783 406.93 336.03)"/>
      <path id="path2922" d="m320.2 379.34a7.1381 6.1184 0 1 1 -14.28 0 7.1381 6.1184 0 1 1 14.28 0z" fill="#28170b" transform="matrix(.50999 0 0 .59499 314.52 281.1)"/>
      <path id="path2924" d="m320.2 379.34a7.1381 6.1184 0 1 1 -14.28 0 7.1381 6.1184 0 1 1 14.28 0z" fill="#28170b" transform="matrix(.60256 0 0 .66132 211.35 435.92)"/>
      <path id="path2926" d="m320.2 379.34a7.1381 6.1184 0 1 1 -14.28 0 7.1381 6.1184 0 1 1 14.28 0z" fill="#28170b" transform="matrix(.66229 0 0 .731 166.14 150.99)"/>
      <path id="path2928" d="m320.2 379.34a7.1381 6.1184 0 1 1 -14.28 0 7.1381 6.1184 0 1 1 14.28 0z" fill="#28170b" transform="matrix(.54283 0 0 .59164 114.82 317.05)"/>
      <path id="path2930" d="m320.2 379.34a7.1381 6.1184 0 1 1 -14.28 0 7.1381 6.1184 0 1 1 14.28 0z" fill="#28170b" transform="matrix(.66229 0 0 .731 227.43 269.29)"/>
      <path id="path2932" d="m320.2 379.34a7.1381 6.1184 0 1 1 -14.28 0 7.1381 6.1184 0 1 1 14.28 0z" fill="#28170b" transform="matrix(.50999 0 0 .59499 65.834 221.91)"/>
      <path id="path2934" d="m320.2 379.34a7.1381 6.1184 0 1 1 -14.28 0 7.1381 6.1184 0 1 1 14.28 0z" fill="#28170b" transform="matrix(.51927 0 0 .48082 255.09 98.334)"/>
      <path id="path2936" d="m320.2 379.34a7.1381 6.1184 0 1 1 -14.28 0 7.1381 6.1184 0 1 1 14.28 0z" fill="#28170b" transform="matrix(.53948 0 0 -.96218 310.57 763.82)"/>
    </g>
  </g>
  <metadata>
    <rdf:RDF>
      <cc:Work>
        <dc:format>image/svg+xml</dc:format>
        <dc:type rdf:resource="http://purl.org/dc/dcmitype/StillImage"/>
        <cc:license rdf:resource="http://creativecommons.org/licenses/publicdomain/"/>
        <dc:publisher>
          <cc:Agent rdf:about="http://openclipart.org/">
            <dc:title>Openclipart</dc:title>
          </cc:Agent>
        </dc:publisher>
      </cc:Work>
      <cc:License rdf:about="http://creativecommons.org/licenses/publicdomain/">
        <cc:permits rdf:resource="http://creativecommons.org/ns#Reproduction"/>
        <cc:permits rdf:resource="http://creativecommons.org/ns#Distribution"/>
        <cc:permits rdf:resource="http://creativecommons.org/ns#DerivativeWorks"/>
      </cc:License>
    </rdf:RDF>
  </metadata>
</svg>
