<?xml version="1.0"?>
<svg xmlns:rdf="http://www.w3.org/1999/02/22-rdf-syntax-ns#" xmlns="http://www.w3.org/2000/svg" xmlns:cc="http://creativecommons.org/ns#" xmlns:xlink="http://www.w3.org/1999/xlink" xmlns:dc="http://purl.org/dc/elements/1.1/" id="svg2558" viewBox="0 0 527.3 502.04" version="1.0">
  <defs id="defs2560">
    <radialGradient id="radialGradient5476" gradientUnits="userSpaceOnUse" cy="219.8" cx="143.58" gradientTransform="matrix(1 0 0 1.1417 0 -31.142)" r="2.3557">
      <stop id="stop3970" stop-color="#d7d7d7" offset="0"/>
      <stop id="stop3972" stop-color="#363636" offset="1"/>
    </radialGradient>
    <filter id="filter4147">
      <feGaussianBlur id="feGaussianBlur4149" stdDeviation="0.076852419"/>
    </filter>
    <filter id="filter3387">
      <feGaussianBlur id="feGaussianBlur3389" stdDeviation="1.877244"/>
    </filter>
    <linearGradient id="linearGradient2977" y2="41.516" gradientUnits="userSpaceOnUse" x2="179.85" gradientTransform="matrix(1.1128 0 0 7.2439 94.737 -95.913)" y1="101.63" x1="179.85">
      <stop id="stop5107" stop-color="#cbcbcb" offset="0"/>
      <stop id="stop5113" stop-color="#ddd" offset=".81"/>
      <stop id="stop5109" stop-color="#c5c5c5" offset="1"/>
    </linearGradient>
  </defs>
  <g id="layer1" transform="translate(-93.817 -151.71)">
    <rect id="rect5439" ry="0" height="502.04" width="527.3" y="151.71" x="93.817" fill="#fff"/>
    <path id="rect3343" filter="url(#filter3387)" d="m138.22 213.17h73.54v63.12h-73.54v-63.12z" fill="#666" transform="matrix(6.5149 0 0 6.5149 -787.13 -1184)"/>
    <path id="rect2160" fill="url(#linearGradient2977)" d="m113.34 204.83h479.14v411.21h-479.14v-411.21z"/>
    <g id="g4308" transform="matrix(6.5149 0 0 6.5149 -787.13 -1184)">
      <g id="g4156">
        <path id="path4119" d="m141.9 218.2a2.1729 2.5072 0 1 1 -0.03 0.05" transform="matrix(.56388 .29364 -.29364 .56388 186.91 50.152)" stroke="#8d8d8d" stroke-width=".36505" fill="url(#radialGradient5476)"/>
        <rect id="rect4121" transform="matrix(.98741 0 0 .98566 61.949 1.1447)" ry=".82162" height="11.004" filter="url(#filter4147)" width="1.6432" y="207.95" x="142.42"/>
      </g>
      <g id="g4160" transform="translate(-4)">
        <path id="path4162" d="m141.9 218.2a2.1729 2.5072 0 1 1 -0.03 0.05" transform="matrix(.56388 .29364 -.29364 .56388 186.91 50.152)" stroke="#8d8d8d" stroke-width=".36505" fill="url(#radialGradient5476)"/>
        <rect id="rect4164" ry=".82162" transform="matrix(.98741 0 0 .98566 61.949 1.1447)" height="11.004" filter="url(#filter4147)" width="1.6432" y="207.95" x="142.42"/>
      </g>
      <g id="g4168" transform="translate(-8)">
        <path id="path4170" d="m141.9 218.2a2.1729 2.5072 0 1 1 -0.03 0.05" transform="matrix(.56388 .29364 -.29364 .56388 186.91 50.152)" stroke="#8d8d8d" stroke-width=".36505" fill="url(#radialGradient5476)"/>
        <rect id="rect4172" transform="matrix(.98741 0 0 .98566 61.949 1.1447)" ry=".82162" height="11.004" filter="url(#filter4147)" width="1.6432" y="207.95" x="142.42"/>
      </g>
      <g id="g4176" transform="translate(-12)">
        <path id="path4178" d="m141.9 218.2a2.1729 2.5072 0 1 1 -0.03 0.05" transform="matrix(.56388 .29364 -.29364 .56388 186.91 50.152)" stroke="#8d8d8d" stroke-width=".36505" fill="url(#radialGradient5476)"/>
        <rect id="rect4180" ry=".82162" transform="matrix(.98741 0 0 .98566 61.949 1.1447)" height="11.004" filter="url(#filter4147)" width="1.6432" y="207.95" x="142.42"/>
      </g>
      <g id="g4184" transform="translate(-16)">
        <path id="path4186" d="m141.9 218.2a2.1729 2.5072 0 1 1 -0.03 0.05" transform="matrix(.56388 .29364 -.29364 .56388 186.91 50.152)" stroke="#8d8d8d" stroke-width=".36505" fill="url(#radialGradient5476)"/>
        <rect id="rect4188" transform="matrix(.98741 0 0 .98566 61.949 1.1447)" ry=".82162" height="11.004" filter="url(#filter4147)" width="1.6432" y="207.95" x="142.42"/>
      </g>
      <g id="g4192" transform="translate(-20)">
        <path id="path4194" d="m141.9 218.2a2.1729 2.5072 0 1 1 -0.03 0.05" transform="matrix(.56388 .29364 -.29364 .56388 186.91 50.152)" stroke="#8d8d8d" stroke-width=".36505" fill="url(#radialGradient5476)"/>
        <rect id="rect4196" ry=".82162" transform="matrix(.98741 0 0 .98566 61.949 1.1447)" height="11.004" filter="url(#filter4147)" width="1.6432" y="207.95" x="142.42"/>
      </g>
      <g id="g4200" transform="translate(-24)">
        <path id="path4202" d="m141.9 218.2a2.1729 2.5072 0 1 1 -0.03 0.05" transform="matrix(.56388 .29364 -.29364 .56388 186.91 50.152)" stroke="#8d8d8d" stroke-width=".36505" fill="url(#radialGradient5476)"/>
        <rect id="rect4204" transform="matrix(.98741 0 0 .98566 61.949 1.1447)" ry=".82162" height="11.004" filter="url(#filter4147)" width="1.6432" y="207.95" x="142.42"/>
      </g>
      <g id="g4208" transform="translate(-28)">
        <path id="path4210" d="m141.9 218.2a2.1729 2.5072 0 1 1 -0.03 0.05" transform="matrix(.56388 .29364 -.29364 .56388 186.91 50.152)" stroke="#8d8d8d" stroke-width=".36505" fill="url(#radialGradient5476)"/>
        <rect id="rect4212" ry=".82162" transform="matrix(.98741 0 0 .98566 61.949 1.1447)" height="11.004" filter="url(#filter4147)" width="1.6432" y="207.95" x="142.42"/>
      </g>
      <g id="g4216" transform="translate(-32)">
        <path id="path4218" d="m141.9 218.2a2.1729 2.5072 0 1 1 -0.03 0.05" transform="matrix(.56388 .29364 -.29364 .56388 186.91 50.152)" stroke="#8d8d8d" stroke-width=".36505" fill="url(#radialGradient5476)"/>
        <rect id="rect4220" transform="matrix(.98741 0 0 .98566 61.949 1.1447)" ry=".82162" height="11.004" filter="url(#filter4147)" width="1.6432" y="207.95" x="142.42"/>
      </g>
      <g id="g4224" transform="translate(-36)">
        <path id="path4226" d="m141.9 218.2a2.1729 2.5072 0 1 1 -0.03 0.05" transform="matrix(.56388 .29364 -.29364 .56388 186.91 50.152)" stroke="#8d8d8d" stroke-width=".36505" fill="url(#radialGradient5476)"/>
        <rect id="rect4228" ry=".82162" transform="matrix(.98741 0 0 .98566 61.949 1.1447)" height="11.004" filter="url(#filter4147)" width="1.6432" y="207.95" x="142.42"/>
      </g>
      <g id="g4232" transform="translate(-40)">
        <path id="path4234" d="m141.9 218.2a2.1729 2.5072 0 1 1 -0.03 0.05" transform="matrix(.56388 .29364 -.29364 .56388 186.91 50.152)" stroke="#8d8d8d" stroke-width=".36505" fill="url(#radialGradient5476)"/>
        <rect id="rect4236" transform="matrix(.98741 0 0 .98566 61.949 1.1447)" ry=".82162" height="11.004" filter="url(#filter4147)" width="1.6432" y="207.95" x="142.42"/>
      </g>
      <g id="g4240" transform="translate(-44)">
        <path id="path4242" d="m141.9 218.2a2.1729 2.5072 0 1 1 -0.03 0.05" transform="matrix(.56388 .29364 -.29364 .56388 186.91 50.152)" stroke="#8d8d8d" stroke-width=".36505" fill="url(#radialGradient5476)"/>
        <rect id="rect4244" ry=".82162" transform="matrix(.98741 0 0 .98566 61.949 1.1447)" height="11.004" filter="url(#filter4147)" width="1.6432" y="207.95" x="142.42"/>
      </g>
      <g id="g4248" transform="translate(-48)">
        <path id="path4250" d="m141.9 218.2a2.1729 2.5072 0 1 1 -0.03 0.05" transform="matrix(.56388 .29364 -.29364 .56388 186.91 50.152)" stroke="#8d8d8d" stroke-width=".36505" fill="url(#radialGradient5476)"/>
        <rect id="rect4252" transform="matrix(.98741 0 0 .98566 61.949 1.1447)" ry=".82162" height="11.004" filter="url(#filter4147)" width="1.6432" y="207.95" x="142.42"/>
      </g>
      <g id="g4256" transform="translate(-52)">
        <path id="path4258" d="m141.9 218.2a2.1729 2.5072 0 1 1 -0.03 0.05" transform="matrix(.56388 .29364 -.29364 .56388 186.91 50.152)" stroke="#8d8d8d" stroke-width=".36505" fill="url(#radialGradient5476)"/>
        <rect id="rect4260" ry=".82162" transform="matrix(.98741 0 0 .98566 61.949 1.1447)" height="11.004" filter="url(#filter4147)" width="1.6432" y="207.95" x="142.42"/>
      </g>
      <g id="g4264" transform="translate(-56)">
        <path id="path4266" d="m141.9 218.2a2.1729 2.5072 0 1 1 -0.03 0.05" transform="matrix(.56388 .29364 -.29364 .56388 186.91 50.152)" stroke="#8d8d8d" stroke-width=".36505" fill="url(#radialGradient5476)"/>
        <rect id="rect4268" transform="matrix(.98741 0 0 .98566 61.949 1.1447)" ry=".82162" height="11.004" filter="url(#filter4147)" width="1.6432" y="207.95" x="142.42"/>
      </g>
      <g id="g4272" transform="translate(-60)">
        <path id="path4274" d="m141.9 218.2a2.1729 2.5072 0 1 1 -0.03 0.05" transform="matrix(.56388 .29364 -.29364 .56388 186.91 50.152)" stroke="#8d8d8d" stroke-width=".36505" fill="url(#radialGradient5476)"/>
        <rect id="rect4276" ry=".82162" transform="matrix(.98741 0 0 .98566 61.949 1.1447)" height="11.004" filter="url(#filter4147)" width="1.6432" y="207.95" x="142.42"/>
      </g>
      <g id="g4280" transform="translate(4)">
        <path id="path4282" d="m141.9 218.2a2.1729 2.5072 0 1 1 -0.03 0.05" transform="matrix(.56388 .29364 -.29364 .56388 186.91 50.152)" stroke="#8d8d8d" stroke-width=".36505" fill="url(#radialGradient5476)"/>
        <rect id="rect4284" transform="matrix(.98741 0 0 .98566 61.949 1.1447)" ry=".82162" height="11.004" filter="url(#filter4147)" width="1.6432" y="207.95" x="142.42"/>
      </g>
    </g>
    <rect id="rect4306" ry="4.2628" height="325.6" width="431.23" y="254.52" x="140.66" fill="#e6e6e6"/>
    <path id="rect4361" fill="#b3b3b3" d="m504.46 527.87h49.31c2.42 0 4.36 1.94 4.36 4.35v34.69c0 2.42-1.94 4.36-4.36 4.36h-49.31c-2.42 0-4.36-1.94-4.36-4.36v-34.69c0-2.41 1.94-4.35 4.36-4.35z"/>
    <rect id="rect4373" ry="4.3562" height="43.4" width="58.03" y="475.81" x="500.1" fill="#b3b3b3"/>
    <rect id="rect4385" ry="4.3562" height="43.4" width="58.03" y="423.76" x="500.1" fill="#b3b3b3"/>
    <rect id="rect4397" ry="4.3562" height="43.4" width="58.03" y="371.7" x="500.1" fill="#b3b3b3"/>
    <rect id="rect4409" ry="4.3562" height="43.4" width="58.03" y="319.65" x="500.1" fill="#b3b3b3"/>
    <rect id="rect4421" ry="4.3562" height="43.4" width="58.03" y="267.59" x="500.1" fill="#b3b3b3"/>
    <path id="text4433" fill="#999" d="m520.97 535.87h15.14v3.24h-11.61v6.99c0.56-0.19 1.12-0.33 1.68-0.43s1.12-0.14 1.68-0.14c3.18 0 5.7 0.87 7.56 2.61 1.86 1.75 2.79 4.11 2.79 7.08 0 3.07-0.96 5.45-2.86 7.15-1.91 1.7-4.6 2.55-8.08 2.55-1.19 0-2.41-0.1-3.65-0.31-1.24-0.2-2.53-0.51-3.85-0.91v-3.88c1.15 0.63 2.33 1.09 3.55 1.4 1.22 0.3 2.51 0.45 3.88 0.45 2.2 0 3.94-0.57 5.23-1.73 1.28-1.16 1.92-2.73 1.92-4.72 0-1.98-0.64-3.55-1.92-4.71-1.29-1.16-3.03-1.74-5.23-1.74-1.04 0-2.06 0.12-3.09 0.35-1.02 0.22-2.07 0.58-3.14 1.06v-14.31z"/>
    <path id="text4457" d="m511.97 509.17h13.46v3.25h-18.09v-3.25c1.46-1.51 3.45-3.55 5.98-6.1s4.11-4.19 4.76-4.93c1.24-1.39 2.1-2.56 2.59-3.52s0.73-1.91 0.73-2.84c0-1.51-0.53-2.75-1.59-3.7s-2.45-1.43-4.15-1.43c-1.21 0-2.49 0.21-3.83 0.63s-2.78 1.05-4.3 1.91v-3.9c1.55-0.62 3-1.09 4.35-1.41s2.58-0.48 3.7-0.48c2.95 0 5.31 0.74 7.06 2.22 1.76 1.47 2.64 3.45 2.64 5.91 0 1.18-0.22 2.29-0.66 3.34s-1.24 2.28-2.4 3.71c-0.31 0.37-1.33 1.43-3.03 3.19-1.71 1.77-4.11 4.23-7.22 7.4zm20.6-25.25h18.32v1.64l-10.34 26.86h-4.03l9.73-25.26h-13.68v-3.24z"/>
    <path id="text4481" d="m512.11 457.22h13.45v3.25h-18.09v-3.25c1.46-1.51 3.46-3.55 5.98-6.1 2.53-2.55 4.12-4.19 4.77-4.93 1.23-1.39 2.09-2.56 2.58-3.52s0.74-1.91 0.74-2.84c0-1.51-0.53-2.75-1.6-3.7-1.06-0.95-2.44-1.43-4.15-1.43-1.21 0-2.48 0.21-3.83 0.63-1.34 0.42-2.77 1.05-4.3 1.91v-3.9c1.55-0.62 3-1.09 4.35-1.41s2.59-0.48 3.7-0.48c2.96 0 5.31 0.74 7.07 2.22 1.75 1.47 2.63 3.45 2.63 5.91 0 1.18-0.22 2.29-0.66 3.34-0.44 1.04-1.23 2.28-2.39 3.71-0.32 0.37-1.33 1.43-3.04 3.19-1.7 1.77-4.11 4.23-7.21 7.4zm22.23 0h6.3v-21.74l-6.85 1.38v-3.52l6.81-1.37h3.86v25.25h6.3v3.25h-16.42v-3.25z"/>
    <path id="text4505" d="m508.64 405.27h6.3v-21.74l-6.85 1.37v-3.51l6.81-1.37h3.86v25.25h6.3v3.25h-16.42v-3.25zm24.26-25.25h15.14v3.24h-11.61v6.99c0.56-0.19 1.12-0.33 1.68-0.43s1.12-0.14 1.68-0.14c3.18 0 5.7 0.87 7.56 2.61s2.79 4.11 2.79 7.08c0 3.07-0.96 5.45-2.87 7.15-1.9 1.7-4.6 2.55-8.07 2.55-1.19 0-2.41-0.1-3.65-0.31-1.24-0.2-2.53-0.51-3.85-0.91v-3.88c1.15 0.63 2.33 1.09 3.55 1.4 1.22 0.3 2.51 0.45 3.87 0.45 2.21 0 3.95-0.58 5.23-1.73 1.29-1.16 1.93-2.73 1.93-4.72 0-1.98-0.64-3.55-1.93-4.71-1.28-1.16-3.02-1.74-5.23-1.74-1.03 0-2.05 0.12-3.08 0.34-1.02 0.23-2.07 0.59-3.14 1.07v-14.31z"/>
    <path id="text4529" d="m521.12 355.97v-3.51c0.96 0.46 1.94 0.81 2.94 1.05 0.99 0.24 1.96 0.36 2.92 0.36 2.54 0 4.48-0.85 5.83-2.56 1.34-1.71 2.11-4.31 2.3-7.8-0.74 1.09-1.68 1.93-2.81 2.52-1.13 0.58-2.38 0.88-3.76 0.88-2.85 0-5.1-0.87-6.77-2.59-1.66-1.72-2.49-4.08-2.49-7.07 0-2.93 0.87-5.28 2.6-7.04 1.73-1.77 4.03-2.66 6.91-2.66 3.29 0 5.81 1.27 7.55 3.79 1.74 2.53 2.6 6.2 2.6 11.01 0 4.49-1.06 8.07-3.19 10.75s-5 4.02-8.6 4.02c-0.97 0-1.95-0.1-2.94-0.29s-2.02-0.48-3.09-0.86zm7.67-12.08c1.73 0 3.1-0.59 4.11-1.77 1.01-1.19 1.52-2.81 1.52-4.87 0-2.05-0.51-3.67-1.52-4.86s-2.38-1.78-4.11-1.78-3.1 0.59-4.11 1.78c-1.02 1.19-1.52 2.81-1.52 4.86 0 2.06 0.5 3.68 1.52 4.87 1.01 1.18 2.38 1.77 4.11 1.77z"/>
    <path id="text4553" d="m532.62 289.25c1.84 0.39 3.28 1.21 4.32 2.46s1.55 2.79 1.55 4.62c0 2.81-0.96 4.99-2.9 6.53-1.93 1.54-4.68 2.31-8.24 2.31-1.2 0-2.43-0.12-3.69-0.35-1.27-0.24-2.58-0.59-3.93-1.06v-3.73c1.07 0.63 2.24 1.1 3.51 1.42 1.28 0.31 2.61 0.47 3.99 0.47 2.42 0 4.26-0.47 5.53-1.43 1.27-0.95 1.9-2.34 1.9-4.16 0-1.68-0.59-2.99-1.77-3.94-1.17-0.95-2.81-1.42-4.91-1.42h-3.32v-3.17h3.47c1.9 0 3.35-0.38 4.35-1.14 1.01-0.75 1.51-1.84 1.51-3.27 0-1.46-0.52-2.59-1.56-3.37-1.03-0.78-2.52-1.17-4.45-1.17-1.06 0-2.19 0.11-3.4 0.34s-2.54 0.59-3.99 1.07v-3.44c1.46-0.4 2.84-0.71 4.11-0.91 1.28-0.21 2.49-0.31 3.62-0.31 2.93 0 5.24 0.67 6.95 2 1.7 1.33 2.56 3.12 2.56 5.39 0 1.58-0.45 2.91-1.36 4-0.9 1.09-2.19 1.84-3.85 2.26z"/>
    <rect id="rect4363" ry="4.3562" height="43.4" width="58.03" y="527.87" x="431.17" fill="#b3b3b3"/>
    <rect id="rect4375" ry="4.3562" height="43.4" width="58.03" y="475.81" x="431.17" fill="#b3b3b3"/>
    <rect id="rect4387" ry="4.3562" height="43.4" width="58.03" y="423.76" x="431.17" fill="#b3b3b3"/>
    <rect id="rect4399" ry="4.3562" height="43.4" width="58.03" y="371.7" x="431.17" fill="#b3b3b3"/>
    <rect id="rect4411" ry="4.3562" height="43.4" width="58.03" y="319.65" x="431.17" fill="#b3b3b3"/>
    <rect id="rect4423" ry="4.3562" height="43.4" width="58.03" y="267.59" x="431.17" fill="#b3b3b3"/>
    <path id="text4437" fill="#999" d="m463.05 539.23l-9.74 15.21h9.74v-15.21zm-1.02-3.36h4.85v18.57h4.07v3.21h-4.07v6.72h-3.83v-6.72h-12.87v-3.72l11.85-18.06z"/>
    <path id="text4461" d="m442.6 509.17h13.46v3.25h-18.09v-3.25c1.46-1.51 3.45-3.55 5.98-6.1s4.11-4.19 4.76-4.93c1.24-1.39 2.1-2.56 2.59-3.52s0.73-1.91 0.73-2.84c0-1.51-0.53-2.75-1.59-3.7s-2.45-1.43-4.15-1.43c-1.21 0-2.49 0.21-3.83 0.63s-2.78 1.05-4.3 1.91v-3.9c1.55-0.62 3-1.09 4.35-1.41s2.58-0.48 3.7-0.48c2.95 0 5.31 0.74 7.06 2.22 1.76 1.47 2.64 3.45 2.64 5.91 0 1.18-0.22 2.29-0.66 3.34s-1.24 2.28-2.4 3.71c-0.31 0.37-1.33 1.43-3.03 3.19-1.71 1.77-4.11 4.23-7.22 7.4zm30.29-12.54c-1.73 0-3.1 0.59-4.11 1.78-1.01 1.18-1.52 2.8-1.52 4.86 0 2.05 0.51 3.67 1.52 4.86s2.38 1.79 4.11 1.79 3.11-0.6 4.12-1.79 1.51-2.81 1.51-4.86c0-2.06-0.5-3.68-1.51-4.86-1.01-1.19-2.39-1.78-4.12-1.78zm7.66-12.08v3.51c-0.97-0.46-1.95-0.81-2.93-1.05-0.99-0.24-1.96-0.36-2.93-0.36-2.55 0-4.49 0.86-5.83 2.58-1.34 1.71-2.11 4.31-2.3 7.78 0.75-1.1 1.69-1.95 2.82-2.55 1.13-0.59 2.38-0.88 3.74-0.88 2.87 0 5.13 0.87 6.79 2.6 1.66 1.74 2.49 4.1 2.49 7.09 0 2.93-0.87 5.28-2.6 7.05-1.73 1.76-4.03 2.65-6.91 2.65-3.29 0-5.81-1.26-7.55-3.79-1.75-2.53-2.62-6.19-2.62-10.98 0-4.51 1.07-8.1 3.21-10.78s5-4.02 8.61-4.02c0.96 0 1.94 0.1 2.93 0.29 0.98 0.19 2.01 0.48 3.08 0.86z"/>
    <path id="text4485" d="m442.67 457.22h13.46v3.25h-18.1v-3.25c1.47-1.51 3.46-3.55 5.99-6.1 2.52-2.55 4.11-4.19 4.76-4.93 1.23-1.39 2.09-2.56 2.58-3.52s0.74-1.91 0.74-2.84c0-1.51-0.53-2.75-1.59-3.7-1.07-0.95-2.45-1.43-4.16-1.43-1.2 0-2.48 0.21-3.82 0.63-1.35 0.42-2.78 1.05-4.31 1.91v-3.9c1.56-0.62 3.01-1.09 4.36-1.41 1.34-0.32 2.58-0.48 3.7-0.48 2.95 0 5.3 0.74 7.06 2.22 1.76 1.47 2.63 3.45 2.63 5.91 0 1.18-0.22 2.29-0.65 3.34-0.44 1.04-1.24 2.28-2.4 3.71-0.32 0.37-1.33 1.43-3.03 3.19-1.71 1.77-4.11 4.23-7.22 7.4zm29.81-22.71c-1.98 0-3.47 0.97-4.47 2.93-1 1.95-1.5 4.89-1.5 8.81 0 3.9 0.5 6.83 1.5 8.79 1 1.95 2.49 2.93 4.47 2.93 2 0 3.5-0.98 4.5-2.93 1-1.96 1.5-4.89 1.5-8.79 0-3.92-0.5-6.86-1.5-8.81-1-1.96-2.5-2.93-4.5-2.93zm0-3.06c3.2 0 5.64 1.27 7.32 3.79 1.69 2.53 2.53 6.2 2.53 11.01 0 4.79-0.84 8.45-2.53 10.98-1.68 2.53-4.12 3.79-7.32 3.79-3.19 0-5.63-1.26-7.32-3.79-1.68-2.53-2.52-6.19-2.52-10.98 0-4.81 0.84-8.48 2.52-11.01 1.69-2.52 4.13-3.79 7.32-3.79z"/>
    <path id="text4509" d="m439.1 405.27h6.3v-21.74l-6.85 1.37v-3.51l6.81-1.37h3.86v25.25h6.3v3.25h-16.42v-3.25zm34.82-21.89l-9.74 15.21h9.74v-15.21zm-1.02-3.36h4.85v18.57h4.07v3.21h-4.07v6.72h-3.83v-6.72h-12.87v-3.73l11.85-18.05z"/>
    <path id="text4533" d="m460.18 343.03c-1.83 0-3.27 0.49-4.32 1.47s-1.58 2.33-1.58 4.05 0.53 3.07 1.58 4.04c1.05 0.98 2.49 1.47 4.32 1.47s3.28-0.49 4.34-1.47c1.05-0.99 1.58-2.34 1.58-4.04 0-1.72-0.53-3.07-1.58-4.05-1.04-0.98-2.49-1.47-4.34-1.47zm-3.85-1.64c-1.66-0.41-2.95-1.18-3.87-2.31s-1.38-2.51-1.38-4.14c0-2.28 0.81-4.08 2.43-5.4 1.62-1.33 3.85-1.99 6.67-1.99 2.84 0 5.07 0.66 6.68 1.99 1.62 1.32 2.43 3.12 2.43 5.4 0 1.63-0.46 3.01-1.39 4.14-0.92 1.13-2.2 1.9-3.84 2.31 1.85 0.43 3.3 1.28 4.34 2.54s1.56 2.8 1.56 4.62c0 2.76-0.85 4.88-2.53 6.35-1.69 1.48-4.1 2.22-7.25 2.22-3.14 0-5.55-0.74-7.24-2.22-1.69-1.47-2.53-3.59-2.53-6.35 0-1.82 0.52-3.36 1.57-4.62 1.04-1.26 2.49-2.11 4.35-2.54zm-1.42-6.09c0 1.48 0.47 2.63 1.39 3.46 0.92 0.82 2.22 1.24 3.88 1.24s2.95-0.42 3.89-1.24c0.93-0.83 1.4-1.98 1.4-3.46 0-1.47-0.47-2.63-1.4-3.45-0.94-0.83-2.23-1.24-3.89-1.24s-2.96 0.41-3.88 1.24c-0.92 0.82-1.39 1.98-1.39 3.45z"/>
    <path id="text4557" d="m455.77 301.37h13.46v3.24h-18.09v-3.24c1.46-1.51 3.45-3.55 5.98-6.1 2.52-2.55 4.11-4.19 4.76-4.93 1.24-1.39 2.1-2.56 2.59-3.52s0.73-1.91 0.73-2.84c0-1.51-0.53-2.75-1.59-3.7-1.06-0.96-2.45-1.43-4.15-1.43-1.21 0-2.49 0.21-3.83 0.63s-2.78 1.05-4.3 1.91v-3.9c1.55-0.62 3-1.09 4.35-1.41s2.58-0.48 3.7-0.48c2.95 0 5.31 0.74 7.06 2.22 1.76 1.47 2.64 3.45 2.64 5.91 0 1.17-0.22 2.28-0.66 3.33s-1.24 2.29-2.4 3.72c-0.31 0.37-1.33 1.43-3.03 3.19-1.71 1.77-4.11 4.23-7.22 7.4z"/>
    <rect id="rect4365" ry="4.3562" height="43.4" width="58.03" y="527.87" x="362.24" fill="#b3b3b3"/>
    <rect id="rect4377" ry="4.3562" height="43.4" width="58.03" y="475.81" x="362.24" fill="#b3b3b3"/>
    <rect id="rect4389" ry="4.3562" height="43.4" width="58.03" y="423.76" x="362.24" fill="#b3b3b3"/>
    <rect id="rect4401" ry="4.3562" height="43.4" width="58.03" y="371.7" x="362.24" fill="#b3b3b3"/>
    <rect id="rect4413" ry="4.3562" height="43.4" width="58.03" y="319.65" x="362.24" fill="#b3b3b3"/>
    <rect id="rect4425" ry="4.3562" height="43.4" width="58.03" y="267.59" x="362.24" fill="#b3b3b3"/>
    <path id="text4441" fill="#999" d="m394.75 549c1.85 0.4 3.29 1.22 4.33 2.46 1.03 1.25 1.55 2.79 1.55 4.62 0 2.81-0.96 4.99-2.9 6.53-1.93 1.54-4.68 2.31-8.24 2.31-1.2 0-2.43-0.12-3.7-0.35-1.26-0.24-2.57-0.59-3.92-1.06v-3.72c1.07 0.62 2.24 1.09 3.51 1.41s2.6 0.47 3.99 0.47c2.42 0 4.26-0.47 5.53-1.43 1.26-0.95 1.9-2.34 1.9-4.16 0-1.68-0.59-2.99-1.77-3.94s-2.81-1.42-4.91-1.42h-3.33v-3.17h3.48c1.89 0 3.34-0.38 4.35-1.14 1.01-0.75 1.51-1.84 1.51-3.27 0-1.46-0.52-2.58-1.56-3.37-1.03-0.78-2.52-1.17-4.45-1.17-1.06 0-2.19 0.11-3.4 0.34s-2.54 0.59-3.99 1.07v-3.43c1.46-0.41 2.83-0.72 4.11-0.92s2.49-0.31 3.62-0.31c2.93 0 5.24 0.67 6.95 2 1.7 1.33 2.55 3.13 2.55 5.39 0 1.58-0.45 2.91-1.35 4s-2.19 1.84-3.86 2.26z"/>
    <path id="text4465" d="m374.15 509.17h13.46v3.25h-18.1v-3.25c1.46-1.51 3.46-3.55 5.99-6.1 2.52-2.55 4.11-4.19 4.76-4.93 1.23-1.39 2.09-2.56 2.58-3.52s0.74-1.91 0.74-2.84c0-1.51-0.53-2.75-1.6-3.7-1.06-0.95-2.44-1.43-4.15-1.43-1.21 0-2.48 0.21-3.82 0.63-1.35 0.42-2.78 1.05-4.31 1.91v-3.9c1.55-0.62 3.01-1.09 4.35-1.41 1.35-0.32 2.59-0.48 3.71-0.48 2.95 0 5.3 0.74 7.06 2.22 1.75 1.47 2.63 3.45 2.63 5.91 0 1.18-0.22 2.29-0.66 3.34-0.43 1.05-1.23 2.28-2.39 3.71-0.32 0.37-1.33 1.43-3.04 3.19-1.7 1.77-4.11 4.23-7.21 7.4zm21.61-25.25h15.13v3.24h-11.6v6.99c0.56-0.19 1.12-0.33 1.68-0.43s1.12-0.14 1.68-0.14c3.18 0 5.7 0.87 7.55 2.61 1.86 1.75 2.79 4.11 2.79 7.08 0 3.07-0.95 5.45-2.86 7.15s-4.6 2.55-8.08 2.55c-1.19 0-2.41-0.1-3.65-0.31-1.24-0.2-2.52-0.51-3.85-0.91v-3.88c1.15 0.63 2.33 1.09 3.55 1.4 1.22 0.3 2.52 0.45 3.88 0.45 2.2 0 3.94-0.57 5.23-1.73 1.28-1.16 1.93-2.73 1.93-4.72 0-1.98-0.65-3.55-1.93-4.71-1.29-1.16-3.03-1.74-5.23-1.74-1.03 0-2.06 0.12-3.08 0.35-1.03 0.22-2.08 0.58-3.14 1.06v-14.31z"/>
    <path id="text4489" d="m370.45 457.22h6.3v-21.74l-6.86 1.38v-3.52l6.82-1.37h3.85v25.25h6.3v3.25h-16.41v-3.25zm24.33 2.65v-3.51c0.97 0.46 1.95 0.81 2.94 1.05s1.97 0.36 2.92 0.36c2.55 0 4.49-0.85 5.83-2.56 1.35-1.71 2.11-4.31 2.3-7.8-0.74 1.09-1.67 1.93-2.8 2.52-1.14 0.58-2.39 0.88-3.76 0.88-2.85 0-5.11-0.86-6.77-2.59-1.66-1.72-2.49-4.08-2.49-7.07 0-2.93 0.87-5.27 2.6-7.04s4.03-2.66 6.91-2.66c3.29 0 5.81 1.27 7.54 3.79 1.74 2.53 2.61 6.2 2.61 11.01 0 4.49-1.07 8.07-3.2 10.75s-5 4.02-8.6 4.02c-0.96 0-1.94-0.1-2.94-0.29-0.99-0.19-2.02-0.47-3.09-0.86zm7.68-12.08c1.73 0 3.1-0.59 4.11-1.77 1.01-1.19 1.52-2.81 1.52-4.87 0-2.05-0.51-3.67-1.52-4.86s-2.38-1.78-4.11-1.78c-1.74 0-3.11 0.59-4.12 1.78s-1.52 2.81-1.52 4.86c0 2.06 0.51 3.68 1.52 4.87 1.01 1.18 2.38 1.77 4.12 1.77z"/>
    <path id="text4513" d="m370.64 405.27h6.3v-21.74l-6.86 1.37v-3.51l6.82-1.37h3.85v25.25h6.3v3.25h-16.41v-3.25zm35.9-12.12c1.84 0.39 3.29 1.22 4.32 2.46 1.04 1.25 1.56 2.79 1.56 4.62 0 2.81-0.97 4.99-2.9 6.53-1.94 1.54-4.69 2.31-8.25 2.31-1.19 0-2.43-0.12-3.69-0.35-1.27-0.24-2.58-0.59-3.92-1.06v-3.73c1.06 0.63 2.24 1.1 3.51 1.42 1.27 0.31 2.6 0.47 3.99 0.47 2.41 0 4.26-0.47 5.52-1.43 1.27-0.95 1.9-2.34 1.9-4.16 0-1.68-0.59-2.99-1.76-3.94-1.18-0.95-2.82-1.42-4.92-1.42h-3.32v-3.17h3.47c1.9 0 3.35-0.38 4.36-1.14 1-0.75 1.5-1.84 1.5-3.27 0-1.46-0.51-2.59-1.55-3.37s-2.52-1.17-4.46-1.17c-1.05 0-2.19 0.11-3.4 0.34-1.2 0.23-2.53 0.59-3.98 1.07v-3.44c1.46-0.4 2.83-0.71 4.11-0.91s2.48-0.31 3.62-0.31c2.92 0 5.24 0.67 6.94 2 1.71 1.33 2.56 3.12 2.56 5.39 0 1.58-0.45 2.91-1.35 4-0.91 1.09-2.19 1.84-3.86 2.26z"/>
    <path id="text4537" d="m382.09 328.07h18.32v1.64l-10.34 26.85h-4.03l9.73-25.25h-13.68v-3.24z"/>
    <path id="text4561" d="m383.32 301.37h6.3v-21.74l-6.85 1.37v-3.51l6.81-1.37h3.86v25.25h6.3v3.24h-16.42v-3.24z"/>
    <rect id="rect4367" ry="4.3562" height="43.4" width="58.03" y="527.87" x="293.31" fill="#b3b3b3"/>
    <rect id="rect4379" ry="4.3562" height="43.4" width="58.03" y="475.81" x="293.31" fill="#b3b3b3"/>
    <rect id="rect4391" ry="4.3562" height="43.4" width="58.03" y="423.76" x="293.31" fill="#b3b3b3"/>
    <rect id="rect4403" ry="4.3562" height="43.4" width="58.03" y="371.7" x="293.31" fill="#b3b3b3"/>
    <rect id="rect4415" ry="4.3562" height="43.4" width="58.03" y="319.65" x="293.31" fill="#b3b3b3"/>
    <rect id="rect4427" ry="4.3562" height="43.4" width="58.03" y="267.59" x="293.31" fill="#b3b3b3"/>
    <path id="text4445" fill="#999" d="m317.91 561.12h13.46v3.25h-18.1v-3.25c1.47-1.51 3.46-3.55 5.99-6.1 2.52-2.55 4.11-4.19 4.76-4.93 1.23-1.39 2.1-2.56 2.59-3.52 0.48-0.96 0.73-1.91 0.73-2.84 0-1.51-0.53-2.75-1.59-3.7-1.07-0.95-2.45-1.43-4.16-1.43-1.2 0-2.48 0.21-3.82 0.63s-2.78 1.05-4.31 1.91v-3.9c1.56-0.62 3.01-1.09 4.36-1.41 1.34-0.32 2.58-0.48 3.7-0.48 2.95 0 5.3 0.74 7.06 2.22 1.76 1.47 2.63 3.45 2.63 5.91 0 1.18-0.22 2.29-0.65 3.34-0.44 1.05-1.24 2.28-2.4 3.71-0.32 0.37-1.33 1.43-3.03 3.19-1.71 1.77-4.11 4.23-7.22 7.4z"/>
    <path id="text4469" d="m304.61 509.17h13.45v3.25h-18.09v-3.25c1.46-1.51 3.46-3.55 5.98-6.1 2.53-2.55 4.12-4.19 4.77-4.93 1.23-1.39 2.09-2.56 2.58-3.52s0.74-1.91 0.74-2.84c0-1.51-0.53-2.75-1.6-3.7-1.06-0.95-2.44-1.43-4.15-1.43-1.21 0-2.48 0.21-3.83 0.63-1.34 0.42-2.77 1.05-4.3 1.91v-3.9c1.55-0.62 3-1.09 4.35-1.41s2.59-0.48 3.7-0.48c2.96 0 5.31 0.74 7.07 2.22 1.75 1.47 2.63 3.45 2.63 5.91 0 1.18-0.22 2.29-0.66 3.34s-1.23 2.28-2.39 3.71c-0.32 0.37-1.33 1.43-3.04 3.19-1.7 1.77-4.11 4.23-7.21 7.4zm32.16-21.89l-9.74 15.21h9.74v-15.21zm-1.01-3.36h4.85v18.57h4.06v3.21h-4.06v6.72h-3.84v-6.72h-12.87v-3.72l11.86-18.06z"/>
    <path id="text4493" d="m301.48 457.22h6.3v-21.74l-6.86 1.38v-3.52l6.82-1.37h3.85v25.25h6.3v3.25h-16.41v-3.25zm32.46-10.29c-1.83 0-3.27 0.49-4.32 1.47s-1.57 2.33-1.57 4.05 0.52 3.07 1.57 4.05 2.49 1.47 4.32 1.47c1.84 0 3.28-0.5 4.34-1.48 1.05-0.99 1.58-2.34 1.58-4.04 0-1.72-0.52-3.07-1.57-4.05s-2.5-1.47-4.35-1.47zm-3.85-1.64c-1.66-0.41-2.94-1.18-3.87-2.31-0.92-1.13-1.38-2.51-1.38-4.14 0-2.28 0.81-4.08 2.43-5.4 1.63-1.32 3.85-1.99 6.67-1.99 2.84 0 5.07 0.67 6.68 1.99 1.62 1.32 2.43 3.12 2.43 5.4 0 1.63-0.46 3.01-1.39 4.14-0.92 1.13-2.2 1.9-3.84 2.31 1.86 0.43 3.3 1.28 4.34 2.54s1.56 2.8 1.56 4.62c0 2.76-0.85 4.88-2.53 6.35-1.69 1.48-4.1 2.22-7.25 2.22-3.14 0-5.55-0.74-7.24-2.22-1.69-1.47-2.53-3.59-2.53-6.35 0-1.82 0.52-3.36 1.57-4.62 1.04-1.26 2.49-2.11 4.35-2.54zm-1.41-6.09c0 1.48 0.46 2.63 1.38 3.46 0.92 0.82 2.22 1.24 3.88 1.24s2.95-0.42 3.89-1.24c0.93-0.83 1.4-1.98 1.4-3.46 0-1.47-0.47-2.62-1.4-3.45-0.94-0.83-2.23-1.24-3.89-1.24s-2.96 0.41-3.88 1.24-1.38 1.98-1.38 3.45z"/>
    <path id="text4517" d="m302.1 405.27h6.3v-21.74l-6.86 1.37v-3.51l6.82-1.37h3.85v25.25h6.3v3.25h-16.41v-3.25zm27.54 0h13.46v3.25h-18.1v-3.25c1.47-1.51 3.46-3.55 5.99-6.1 2.52-2.55 4.11-4.19 4.76-4.93 1.23-1.39 2.09-2.56 2.58-3.52s0.74-1.91 0.74-2.84c0-1.51-0.53-2.75-1.6-3.7-1.06-0.95-2.44-1.43-4.15-1.43-1.21 0-2.48 0.21-3.82 0.63-1.35 0.42-2.78 1.05-4.31 1.91v-3.9c1.56-0.62 3.01-1.09 4.35-1.41 1.35-0.32 2.59-0.48 3.71-0.48 2.95 0 5.3 0.74 7.06 2.22 1.76 1.47 2.63 3.45 2.63 5.91 0 1.17-0.22 2.29-0.66 3.33-0.43 1.05-1.23 2.29-2.39 3.72-0.32 0.37-1.33 1.43-3.04 3.19-1.7 1.77-4.11 4.23-7.21 7.4z"/>
    <path id="text4541" d="m322.65 340.78c-1.73 0-3.1 0.59-4.11 1.78-1.01 1.18-1.52 2.8-1.52 4.86 0 2.05 0.51 3.67 1.52 4.86s2.38 1.78 4.11 1.78 3.11-0.59 4.12-1.78 1.51-2.81 1.51-4.86c0-2.06-0.5-3.68-1.51-4.86-1.01-1.19-2.39-1.78-4.12-1.78zm7.66-12.08v3.51c-0.97-0.46-1.95-0.81-2.93-1.05-0.99-0.24-1.96-0.36-2.93-0.36-2.55 0-4.49 0.86-5.83 2.57-1.35 1.72-2.11 4.32-2.3 7.79 0.75-1.11 1.69-1.95 2.82-2.55 1.13-0.59 2.38-0.88 3.74-0.88 2.87 0 5.13 0.86 6.79 2.6s2.49 4.1 2.49 7.09c0 2.93-0.87 5.28-2.6 7.05-1.73 1.76-4.03 2.65-6.91 2.65-3.29 0-5.81-1.26-7.55-3.79-1.75-2.53-2.62-6.19-2.62-10.98 0-4.51 1.07-8.1 3.21-10.78s5-4.02 8.61-4.02c0.96 0 1.94 0.1 2.93 0.29 0.98 0.19 2.01 0.48 3.08 0.86z"/>
    <path id="text4569" fill="#999" d="m313.62 289.25c1.84 0.39 3.28 1.21 4.32 2.46s1.56 2.79 1.56 4.62c0 2.81-0.97 4.99-2.91 6.53-1.93 1.54-4.68 2.31-8.24 2.31-1.2 0-2.43-0.12-3.69-0.35-1.27-0.24-2.58-0.59-3.93-1.06v-3.73c1.07 0.63 2.24 1.1 3.51 1.42 1.28 0.31 2.61 0.47 3.99 0.47 2.42 0 4.26-0.47 5.53-1.43 1.27-0.95 1.9-2.34 1.9-4.16 0-1.68-0.59-2.99-1.77-3.94-1.17-0.95-2.81-1.42-4.91-1.42h-3.32v-3.17h3.47c1.9 0 3.35-0.38 4.35-1.14 1.01-0.75 1.51-1.84 1.51-3.27 0-1.46-0.52-2.59-1.55-3.37-1.04-0.78-2.53-1.17-4.46-1.17-1.06 0-2.19 0.11-3.4 0.34s-2.54 0.59-3.99 1.07v-3.44c1.47-0.4 2.84-0.71 4.12-0.91 1.27-0.21 2.48-0.31 3.61-0.31 2.93 0 5.24 0.67 6.95 2 1.7 1.33 2.56 3.12 2.56 5.39 0 1.58-0.45 2.91-1.36 4-0.9 1.09-2.19 1.84-3.85 2.26zm13.87 12.12h6.3v-21.74l-6.85 1.37v-3.51l6.81-1.37h3.86v25.25h6.3v3.24h-16.42v-3.24z"/>
    <rect id="rect4369" ry="4.3562" height="43.4" width="58.03" y="527.87" x="224.37" fill="#b3b3b3"/>
    <rect id="rect4381" ry="4.3562" height="43.4" width="58.03" y="475.81" x="224.37" fill="#b3b3b3"/>
    <rect id="rect4393" ry="4.3562" height="43.4" width="58.03" y="423.76" x="224.37" fill="#b3b3b3"/>
    <rect id="rect4405" ry="4.3562" height="43.4" width="58.03" y="371.7" x="224.37" fill="#b3b3b3"/>
    <rect id="rect4417" ry="4.3562" height="43.4" width="58.03" y="319.65" x="224.37" fill="#b3b3b3"/>
    <rect id="rect4429" ry="4.3562" height="43.4" width="58.03" y="267.59" x="224.37" fill="#b3b3b3"/>
    <path id="text4449" fill="#999" d="m245.46 561.12h6.3v-21.74l-6.86 1.38v-3.52l6.82-1.37h3.85v25.25h6.3v3.25h-16.41v-3.25z"/>
    <path id="text4473" d="m236.14 509.17h13.46v3.25h-18.09v-3.25c1.46-1.51 3.45-3.55 5.98-6.1s4.11-4.19 4.76-4.93c1.24-1.39 2.1-2.56 2.59-3.52s0.73-1.91 0.73-2.84c0-1.51-0.53-2.75-1.59-3.7s-2.45-1.43-4.15-1.43c-1.21 0-2.49 0.21-3.83 0.63s-2.78 1.05-4.3 1.91v-3.9c1.55-0.62 3-1.09 4.35-1.41s2.58-0.48 3.7-0.48c2.95 0 5.31 0.74 7.06 2.22 1.76 1.47 2.64 3.45 2.64 5.91 0 1.18-0.22 2.29-0.66 3.34s-1.24 2.28-2.4 3.71c-0.31 0.37-1.33 1.43-3.03 3.19-1.71 1.77-4.11 4.23-7.22 7.4zm33.25-12.12c1.85 0.4 3.29 1.22 4.33 2.46 1.03 1.25 1.55 2.79 1.55 4.62 0 2.81-0.97 4.99-2.9 6.53s-4.68 2.31-8.24 2.31c-1.2 0-2.43-0.12-3.7-0.35-1.26-0.24-2.57-0.59-3.92-1.06v-3.73c1.07 0.63 2.24 1.1 3.51 1.42s2.6 0.47 3.99 0.47c2.42 0 4.26-0.47 5.53-1.43 1.26-0.95 1.9-2.34 1.9-4.16 0-1.68-0.59-2.99-1.77-3.94s-2.82-1.42-4.92-1.42h-3.32v-3.17h3.48c1.89 0 3.34-0.38 4.35-1.14 1-0.75 1.51-1.84 1.51-3.27 0-1.46-0.52-2.59-1.56-3.37s-2.52-1.17-4.46-1.17c-1.05 0-2.18 0.11-3.39 0.34s-2.54 0.59-3.99 1.07v-3.43c1.46-0.41 2.83-0.72 4.11-0.92s2.49-0.31 3.62-0.31c2.93 0 5.24 0.67 6.95 2 1.7 1.33 2.55 3.13 2.55 5.39 0 1.58-0.45 2.91-1.35 4s-2.19 1.84-3.86 2.26z"/>
    <path id="text4497" d="m232.88 457.22h6.3v-21.74l-6.85 1.38v-3.52l6.81-1.37h3.86v25.25h6.29v3.25h-16.41v-3.25zm23.25-25.25h18.32v1.64l-10.34 26.86h-4.03l9.73-25.26h-13.68v-3.24z"/>
    <path id="text4521" fill="#f00" d="m233.01 405.27h6.3v-21.74l-6.85 1.37v-3.51l6.81-1.37h3.86v25.25h6.3v3.25h-16.42v-3.25zm24.89 0h6.3v-21.74l-6.85 1.37v-3.51l6.81-1.37h3.86v25.25h6.3v3.25h-16.42v-3.25z"/>
    <path id="text4545" d="m245.37 328.07h15.14v3.24h-11.61v6.99c0.56-0.19 1.12-0.34 1.68-0.43 0.56-0.1 1.12-0.14 1.68-0.14 3.18 0 5.7 0.87 7.56 2.61s2.79 4.1 2.79 7.08c0 3.07-0.96 5.45-2.87 7.15-1.9 1.7-4.6 2.55-8.07 2.55-1.2 0-2.41-0.1-3.65-0.31-1.24-0.2-2.53-0.51-3.85-0.91v-3.88c1.15 0.63 2.33 1.09 3.55 1.4 1.22 0.3 2.51 0.45 3.87 0.45 2.21 0 3.95-0.58 5.23-1.73 1.29-1.16 1.93-2.73 1.93-4.72 0-1.98-0.64-3.55-1.93-4.71-1.28-1.16-3.02-1.74-5.23-1.74-1.03 0-2.05 0.12-3.08 0.34-1.02 0.23-2.07 0.59-3.14 1.07v-14.31z"/>
    <path id="text4573" fill="#999" d="m244.18 289.25c1.84 0.39 3.29 1.21 4.32 2.46 1.04 1.25 1.56 2.79 1.56 4.62 0 2.81-0.97 4.99-2.9 6.53-1.94 1.54-4.69 2.31-8.25 2.31-1.19 0-2.43-0.12-3.69-0.35-1.27-0.24-2.58-0.59-3.92-1.06v-3.73c1.06 0.63 2.24 1.1 3.51 1.42 1.27 0.31 2.6 0.47 3.99 0.47 2.41 0 4.26-0.47 5.52-1.43 1.27-0.95 1.9-2.34 1.9-4.16 0-1.68-0.59-2.99-1.76-3.94-1.18-0.95-2.82-1.42-4.92-1.42h-3.32v-3.17h3.47c1.9 0 3.35-0.38 4.36-1.14 1-0.75 1.5-1.84 1.5-3.27 0-1.46-0.51-2.59-1.55-3.37s-2.52-1.17-4.46-1.17c-1.05 0-2.19 0.11-3.4 0.34-1.2 0.23-2.53 0.59-3.99 1.07v-3.44c1.47-0.4 2.84-0.71 4.12-0.91 1.28-0.21 2.48-0.31 3.61-0.31 2.93 0 5.25 0.67 6.95 2 1.71 1.33 2.56 3.12 2.56 5.39 0 1.58-0.45 2.91-1.36 4-0.9 1.09-2.18 1.84-3.85 2.26zm21.45-10.59c-1.98 0-3.47 0.97-4.47 2.93-1 1.95-1.5 4.89-1.5 8.8s0.5 6.84 1.5 8.79c1 1.96 2.49 2.93 4.47 2.93 2 0 3.5-0.97 4.5-2.93 1-1.95 1.5-4.88 1.5-8.79s-0.5-6.85-1.5-8.8c-1-1.96-2.5-2.93-4.5-2.93zm0-3.06c3.2 0 5.64 1.27 7.32 3.79 1.69 2.53 2.53 6.2 2.53 11s-0.84 8.46-2.53 10.99c-1.68 2.53-4.12 3.79-7.32 3.79-3.19 0-5.63-1.26-7.32-3.79-1.68-2.53-2.53-6.19-2.53-10.99s0.85-8.47 2.53-11c1.69-2.52 4.13-3.79 7.32-3.79z"/>
    <rect id="rect4371" ry="4.3562" height="43.4" width="58.03" y="527.87" x="155.44" fill="#b3b3b3"/>
    <rect id="rect4383" ry="4.3562" height="43.4" width="58.03" y="475.81" x="155.44" fill="#b3b3b3"/>
    <rect id="rect4395" ry="4.3562" height="43.4" width="58.03" y="423.76" x="155.44" fill="#b3b3b3"/>
    <rect id="rect4407" ry="4.3562" height="43.4" width="58.03" y="371.7" x="155.44" fill="#b3b3b3"/>
    <rect id="rect4419" ry="4.3562" height="43.4" width="58.03" y="319.65" x="155.44" fill="#b3b3b3"/>
    <rect id="rect4431" ry="4.3562" height="43.4" width="58.03" y="267.59" x="155.44" fill="#b3b3b3"/>
    <path id="text4453" d="m166.98 561.12h13.46v3.25h-18.09v-3.25c1.46-1.51 3.45-3.55 5.98-6.1 2.52-2.55 4.11-4.19 4.76-4.93 1.24-1.39 2.1-2.56 2.59-3.52s0.73-1.91 0.73-2.84c0-1.51-0.53-2.75-1.59-3.7s-2.45-1.43-4.15-1.43c-1.21 0-2.49 0.21-3.83 0.63s-2.78 1.05-4.3 1.91v-3.9c1.55-0.62 3-1.09 4.35-1.41s2.58-0.48 3.7-0.48c2.95 0 5.31 0.74 7.06 2.22 1.76 1.47 2.64 3.45 2.64 5.91 0 1.18-0.22 2.29-0.66 3.34s-1.24 2.28-2.4 3.71c-0.31 0.37-1.33 1.43-3.03 3.19-1.71 1.77-4.11 4.23-7.22 7.4zm29.82-10.29c-1.84 0-3.28 0.49-4.33 1.47s-1.57 2.33-1.57 4.05 0.52 3.07 1.57 4.05 2.49 1.47 4.33 1.47c1.83 0 3.27-0.5 4.33-1.48 1.06-0.99 1.58-2.34 1.58-4.04 0-1.72-0.52-3.07-1.57-4.05s-2.5-1.47-4.34-1.47zm-3.86-1.64c-1.65-0.41-2.94-1.18-3.86-2.31-0.93-1.13-1.39-2.51-1.39-4.14 0-2.28 0.81-4.08 2.44-5.4 1.62-1.32 3.84-1.99 6.67-1.99s5.06 0.67 6.68 1.99c1.61 1.32 2.42 3.12 2.42 5.4 0 1.63-0.46 3.01-1.38 4.14s-2.21 1.9-3.85 2.31c1.86 0.43 3.31 1.28 4.34 2.54 1.04 1.26 1.56 2.8 1.56 4.62 0 2.76-0.84 4.88-2.53 6.36-1.69 1.47-4.1 2.21-7.24 2.21-3.15 0-5.56-0.74-7.25-2.21-1.68-1.48-2.53-3.6-2.53-6.36 0-1.82 0.53-3.36 1.57-4.62s2.49-2.11 4.35-2.54zm-1.41-6.09c0 1.48 0.46 2.63 1.38 3.46 0.93 0.83 2.22 1.24 3.89 1.24 1.65 0 2.95-0.41 3.88-1.24 0.94-0.83 1.4-1.98 1.4-3.46 0-1.47-0.46-2.62-1.4-3.45-0.93-0.83-2.23-1.24-3.88-1.24-1.67 0-2.96 0.41-3.89 1.24-0.92 0.83-1.38 1.98-1.38 3.45z"/>
    <path id="text4477" d="m167.6 509.17h13.46v3.25h-18.09v-3.25c1.46-1.51 3.45-3.55 5.98-6.1s4.11-4.19 4.76-4.93c1.24-1.39 2.1-2.56 2.59-3.52s0.73-1.91 0.73-2.84c0-1.51-0.53-2.75-1.59-3.7s-2.45-1.43-4.15-1.43c-1.21 0-2.49 0.21-3.83 0.63s-2.78 1.05-4.3 1.91v-3.9c1.55-0.62 3-1.09 4.35-1.41s2.58-0.48 3.7-0.48c2.95 0 5.31 0.74 7.06 2.22 1.76 1.47 2.64 3.45 2.64 5.91 0 1.18-0.22 2.29-0.66 3.34s-1.24 2.28-2.4 3.71c-0.31 0.37-1.33 1.43-3.03 3.19-1.71 1.77-4.11 4.23-7.22 7.4zm24.89 0h13.46v3.25h-18.1v-3.25c1.47-1.51 3.46-3.55 5.99-6.1 2.52-2.55 4.11-4.19 4.76-4.93 1.23-1.39 2.1-2.56 2.59-3.52s0.73-1.91 0.73-2.84c0-1.51-0.53-2.75-1.59-3.7s-2.45-1.43-4.15-1.43c-1.21 0-2.49 0.21-3.83 0.63s-2.78 1.05-4.3 1.91v-3.9c1.55-0.62 3-1.09 4.35-1.41s2.58-0.48 3.7-0.48c2.95 0 5.31 0.74 7.06 2.22 1.76 1.47 2.64 3.45 2.64 5.91 0 1.18-0.22 2.29-0.66 3.34s-1.24 2.28-2.4 3.71c-0.32 0.37-1.33 1.43-3.03 3.19-1.71 1.77-4.11 4.23-7.22 7.4z"/>
    <path id="text4501" d="m163.51 457.22h6.3v-21.74l-6.85 1.38v-3.52l6.81-1.37h3.86v25.25h6.29v3.25h-16.41v-3.25zm32.94-12.54c-1.73 0-3.1 0.59-4.11 1.78-1.01 1.18-1.52 2.8-1.52 4.86 0 2.05 0.51 3.67 1.52 4.86s2.38 1.79 4.11 1.79 3.11-0.6 4.12-1.79 1.51-2.81 1.51-4.86c0-2.06-0.5-3.68-1.51-4.86-1.01-1.19-2.39-1.78-4.12-1.78zm7.66-12.08v3.51c-0.97-0.46-1.95-0.81-2.93-1.05-0.99-0.24-1.97-0.36-2.93-0.36-2.55 0-4.49 0.86-5.83 2.58-1.35 1.71-2.11 4.31-2.3 7.78 0.75-1.1 1.69-1.95 2.82-2.55 1.13-0.59 2.38-0.88 3.74-0.88 2.87 0 5.13 0.87 6.79 2.6 1.66 1.74 2.49 4.1 2.49 7.09 0 2.93-0.87 5.28-2.6 7.05-1.73 1.76-4.03 2.65-6.91 2.65-3.29 0-5.81-1.26-7.55-3.79-1.75-2.53-2.62-6.19-2.62-10.98 0-4.51 1.07-8.1 3.21-10.78 2.13-2.68 5-4.02 8.6-4.02 0.97 0 1.95 0.1 2.93 0.29 0.99 0.19 2.02 0.48 3.09 0.86z"/>
    <path id="text4525" d="m163.58 405.27h6.3v-21.74l-6.86 1.37v-3.51l6.82-1.37h3.85v25.25h6.3v3.25h-16.41v-3.25zm32.46-22.71c-1.98 0-3.47 0.97-4.47 2.93-1 1.95-1.5 4.89-1.5 8.81 0 3.9 0.5 6.83 1.5 8.78 1 1.96 2.49 2.93 4.47 2.93 2 0 3.5-0.97 4.5-2.93 1-1.95 1.5-4.88 1.5-8.78 0-3.92-0.5-6.86-1.5-8.81-1-1.96-2.5-2.93-4.5-2.93zm0-3.06c3.2 0 5.64 1.27 7.32 3.79 1.69 2.53 2.53 6.2 2.53 11.01 0 4.79-0.84 8.45-2.53 10.98-1.68 2.53-4.12 3.79-7.32 3.79-3.19 0-5.63-1.26-7.32-3.79-1.68-2.53-2.53-6.19-2.53-10.98 0-4.81 0.85-8.48 2.53-11.01 1.69-2.52 4.13-3.79 7.32-3.79z"/>
    <path id="text4549" d="m186.94 331.43l-9.74 15.21h9.74v-15.21zm-1.01-3.36h4.85v18.57h4.06v3.21h-4.06v6.71h-3.84v-6.71h-12.87v-3.73l11.86-18.05z"/>
    <path id="text4577" fill="#999" d="m167.02 301.37h13.46v3.24h-18.1v-3.24c1.47-1.51 3.46-3.55 5.99-6.1 2.52-2.55 4.11-4.19 4.76-4.93 1.23-1.39 2.1-2.56 2.59-3.52s0.73-1.91 0.73-2.84c0-1.51-0.53-2.75-1.59-3.7-1.07-0.96-2.45-1.43-4.15-1.43-1.21 0-2.49 0.21-3.83 0.63s-2.78 1.05-4.31 1.91v-3.9c1.56-0.62 3.01-1.09 4.36-1.41s2.58-0.48 3.7-0.48c2.95 0 5.31 0.74 7.06 2.22 1.76 1.47 2.64 3.45 2.64 5.91 0 1.17-0.22 2.28-0.66 3.33s-1.24 2.29-2.4 3.72c-0.32 0.37-1.33 1.43-3.03 3.19-1.71 1.77-4.11 4.23-7.22 7.4zm21.68 2.65v-3.51c0.97 0.46 1.95 0.81 2.94 1.05 1 0.24 1.97 0.36 2.92 0.36 2.55 0 4.49-0.85 5.83-2.56 1.35-1.72 2.11-4.31 2.3-7.8-0.73 1.09-1.67 1.93-2.8 2.52-1.13 0.58-2.39 0.88-3.76 0.88-2.85 0-5.11-0.87-6.77-2.59s-2.49-4.08-2.49-7.07c0-2.93 0.87-5.28 2.6-7.04 1.73-1.77 4.03-2.66 6.91-2.66 3.29 0 5.81 1.27 7.55 3.79 1.73 2.53 2.6 6.2 2.6 11 0 4.5-1.06 8.08-3.2 10.76-2.13 2.68-4.99 4.02-8.59 4.02-0.97 0-1.95-0.1-2.94-0.29-1-0.19-2.03-0.48-3.1-0.86zm7.68-12.08c1.73 0 3.1-0.59 4.11-1.77 1.01-1.19 1.52-2.81 1.52-4.87 0-2.05-0.51-3.67-1.52-4.86s-2.38-1.78-4.11-1.78-3.1 0.59-4.12 1.78c-1.01 1.19-1.51 2.81-1.51 4.86 0 2.06 0.5 3.68 1.51 4.87 1.02 1.18 2.39 1.77 4.12 1.77z"/>
  </g>
  <metadata>
    <rdf:RDF>
      <cc:Work>
        <dc:format>image/svg+xml</dc:format>
        <dc:type rdf:resource="http://purl.org/dc/dcmitype/StillImage"/>
        <cc:license rdf:resource="http://creativecommons.org/licenses/publicdomain/"/>
        <dc:publisher>
          <cc:Agent rdf:about="http://openclipart.org/">
            <dc:title>Openclipart</dc:title>
          </cc:Agent>
        </dc:publisher>
      </cc:Work>
      <cc:License rdf:about="http://creativecommons.org/licenses/publicdomain/">
        <cc:permits rdf:resource="http://creativecommons.org/ns#Reproduction"/>
        <cc:permits rdf:resource="http://creativecommons.org/ns#Distribution"/>
        <cc:permits rdf:resource="http://creativecommons.org/ns#DerivativeWorks"/>
      </cc:License>
    </rdf:RDF>
  </metadata>
</svg>
